<?xml version="1.0" encoding="UTF-8"?><svg xmlns="http://www.w3.org/2000/svg" xmlns:xlink="http://www.w3.org/1999/xlink" fill-opacity="1" color-rendering="auto" color-interpolation="auto" text-rendering="auto" stroke="black" stroke-linecap="square" width="3068" stroke-miterlimit="10" shape-rendering="auto" stroke-opacity="1" fill="black" stroke-dasharray="none" font-weight="normal" stroke-width="1" height="1380" font-family="'Dialog'" font-style="normal" stroke-linejoin="miter" font-size="12px" stroke-dashoffset="0" image-rendering="auto">
  <!--Generated by ySVG 2.5-->
  <defs id="genericDefs"/>
  <g>
    <defs id="defs1">
      <clipPath clipPathUnits="userSpaceOnUse" id="clipPath1">
        <path d="M0 0 L3068 0 L3068 1380 L0 1380 L0 0 Z"/>
      </clipPath>
      <clipPath clipPathUnits="userSpaceOnUse" id="clipPath2">
        <path d="M-1129 -450 L1939 -450 L1939 930 L-1129 930 L-1129 -450 Z"/>
      </clipPath>
    </defs>
    <g fill="white" text-rendering="geometricPrecision" shape-rendering="geometricPrecision" transform="translate(1129,450)" stroke="white">
      <rect x="-1129" width="3068" height="1380" y="-450" clip-path="url(#clipPath2)" stroke="none"/>
    </g>
    <g fill="white" text-rendering="geometricPrecision" shape-rendering="geometricPrecision" transform="matrix(1,0,0,1,1129,450)" stroke="white">
      <rect x="569.6592" y="285" clip-path="url(#clipPath2)" width="60.6816" rx="4" ry="4" height="30" stroke="none"/>
    </g>
    <g text-rendering="geometricPrecision" stroke-miterlimit="1.45" shape-rendering="geometricPrecision" font-family="sans-serif" transform="matrix(1,0,0,1,1129,450)" stroke-linecap="butt">
      <text x="576.6592" xml:space="preserve" y="304.7139" clip-path="url(#clipPath2)" stroke="none">Crawling</text>
      <rect x="569.6592" y="285" clip-path="url(#clipPath2)" fill="none" width="60.6816" rx="4" ry="4" height="30"/>
    </g>
    <g fill="white" text-rendering="geometricPrecision" shape-rendering="geometricPrecision" transform="matrix(1,0,0,1,1129,450)" stroke="white">
      <rect x="425.9873" y="345" clip-path="url(#clipPath2)" width="48.0254" rx="4" ry="4" height="30" stroke="none"/>
    </g>
    <g text-rendering="geometricPrecision" stroke-miterlimit="1.45" shape-rendering="geometricPrecision" font-family="sans-serif" transform="matrix(1,0,0,1,1129,450)" stroke-linecap="butt">
      <text x="432.9873" xml:space="preserve" y="364.7139" clip-path="url(#clipPath2)" stroke="none">Eating</text>
      <rect x="425.9873" y="345" clip-path="url(#clipPath2)" fill="none" width="48.0254" rx="4" ry="4" height="30"/>
    </g>
    <g fill="white" text-rendering="geometricPrecision" shape-rendering="geometricPrecision" transform="matrix(1,0,0,1,1129,450)" stroke="white">
      <rect x="578.9697" y="165" clip-path="url(#clipPath2)" width="102.0605" rx="4" ry="4" height="30" stroke="none"/>
    </g>
    <g text-rendering="geometricPrecision" stroke-miterlimit="1.45" shape-rendering="geometricPrecision" font-family="sans-serif" transform="matrix(1,0,0,1,1129,450)" stroke-linecap="butt">
      <text x="585.9697" xml:space="preserve" y="184.7139" clip-path="url(#clipPath2)" stroke="none">Getting attention</text>
      <rect x="578.9697" y="165" clip-path="url(#clipPath2)" fill="none" width="102.0605" rx="4" ry="4" height="30"/>
    </g>
    <g fill="white" text-rendering="geometricPrecision" shape-rendering="geometricPrecision" transform="matrix(1,0,0,1,1129,450)" stroke="white">
      <rect x="839.9932" y="255" clip-path="url(#clipPath2)" width="60.0137" rx="4" ry="4" height="30" stroke="none"/>
    </g>
    <g text-rendering="geometricPrecision" stroke-miterlimit="1.45" shape-rendering="geometricPrecision" font-family="sans-serif" transform="matrix(1,0,0,1,1129,450)" stroke-linecap="butt">
      <text x="846.9932" xml:space="preserve" y="274.7139" clip-path="url(#clipPath2)" stroke="none">Tracking</text>
      <rect x="839.9932" y="255" clip-path="url(#clipPath2)" fill="none" width="60.0137" rx="4" ry="4" height="30"/>
    </g>
    <g fill="white" text-rendering="geometricPrecision" shape-rendering="geometricPrecision" transform="matrix(1,0,0,1,1129,450)" stroke="white">
      <rect x="631.6602" y="345" clip-path="url(#clipPath2)" width="56.6797" rx="4" ry="4" height="30" stroke="none"/>
    </g>
    <g text-rendering="geometricPrecision" stroke-miterlimit="1.45" shape-rendering="geometricPrecision" font-family="sans-serif" transform="matrix(1,0,0,1,1129,450)" stroke-linecap="butt">
      <text x="638.6602" xml:space="preserve" y="364.7139" clip-path="url(#clipPath2)" stroke="none">Walking</text>
      <rect x="631.6602" y="345" clip-path="url(#clipPath2)" fill="none" width="56.6797" rx="4" ry="4" height="30"/>
    </g>
    <g fill="white" text-rendering="geometricPrecision" shape-rendering="geometricPrecision" transform="matrix(1,0,0,1,1129,450)" stroke="white">
      <rect x="783.6582" y="435" clip-path="url(#clipPath2)" width="52.6836" rx="4" ry="4" height="30" stroke="none"/>
    </g>
    <g text-rendering="geometricPrecision" stroke-miterlimit="1.45" shape-rendering="geometricPrecision" font-family="sans-serif" transform="matrix(1,0,0,1,1129,450)" stroke-linecap="butt">
      <text x="790.6582" xml:space="preserve" y="454.7139" clip-path="url(#clipPath2)" stroke="none">Talking</text>
      <rect x="783.6582" y="435" clip-path="url(#clipPath2)" fill="none" width="52.6836" rx="4" ry="4" height="30"/>
    </g>
    <g fill="white" text-rendering="geometricPrecision" shape-rendering="geometricPrecision" transform="matrix(1,0,0,1,1129,450)" stroke="white">
      <rect x="898.9824" y="555" clip-path="url(#clipPath2)" width="62.0352" rx="4" ry="4" height="30" stroke="none"/>
    </g>
    <g text-rendering="geometricPrecision" stroke-miterlimit="1.45" shape-rendering="geometricPrecision" font-family="sans-serif" transform="matrix(1,0,0,1,1129,450)" stroke-linecap="butt">
      <text x="905.9824" xml:space="preserve" y="574.7139" clip-path="url(#clipPath2)" stroke="none">Listening</text>
      <rect x="898.9824" y="555" clip-path="url(#clipPath2)" fill="none" width="62.0352" rx="4" ry="4" height="30"/>
    </g>
    <g fill="white" text-rendering="geometricPrecision" shape-rendering="geometricPrecision" transform="matrix(1,0,0,1,1129,450)" stroke="white">
      <rect x="703.9736" y="645" clip-path="url(#clipPath2)" width="92.0527" rx="4" ry="4" height="30" stroke="none"/>
    </g>
    <g text-rendering="geometricPrecision" stroke-miterlimit="1.45" shape-rendering="geometricPrecision" font-family="sans-serif" transform="matrix(1,0,0,1,1129,450)" stroke-linecap="butt">
      <text x="710.9736" xml:space="preserve" y="664.7139" clip-path="url(#clipPath2)" stroke="none">Understanding</text>
      <rect x="703.9736" y="645" clip-path="url(#clipPath2)" fill="none" width="92.0527" rx="4" ry="4" height="30"/>
    </g>
    <g fill="white" text-rendering="geometricPrecision" shape-rendering="geometricPrecision" transform="matrix(1,0,0,1,1129,450)" stroke="white">
      <rect x="754.3174" y="225" clip-path="url(#clipPath2)" width="51.3652" rx="4" ry="4" height="30" stroke="none"/>
    </g>
    <g text-rendering="geometricPrecision" stroke-miterlimit="1.45" shape-rendering="geometricPrecision" font-family="sans-serif" transform="matrix(1,0,0,1,1129,450)" stroke-linecap="butt">
      <text x="761.3174" xml:space="preserve" y="244.7139" clip-path="url(#clipPath2)" stroke="none">Seeing</text>
      <rect x="754.3174" y="225" clip-path="url(#clipPath2)" fill="none" width="51.3652" rx="4" ry="4" height="30"/>
    </g>
    <g fill="white" text-rendering="geometricPrecision" shape-rendering="geometricPrecision" transform="matrix(1,0,0,1,1129,450)" stroke="white">
      <rect x="871.9883" y="405" clip-path="url(#clipPath2)" width="56.0234" rx="4" ry="4" height="30" stroke="none"/>
    </g>
    <g text-rendering="geometricPrecision" stroke-miterlimit="1.45" shape-rendering="geometricPrecision" font-family="sans-serif" transform="matrix(1,0,0,1,1129,450)" stroke-linecap="butt">
      <text x="878.9883" xml:space="preserve" y="424.7139" clip-path="url(#clipPath2)" stroke="none">Hearing</text>
      <rect x="871.9883" y="405" clip-path="url(#clipPath2)" fill="none" width="56.0234" rx="4" ry="4" height="30"/>
    </g>
    <g fill="white" text-rendering="geometricPrecision" shape-rendering="geometricPrecision" transform="matrix(1,0,0,1,1129,450)" stroke="white">
      <rect x="303.3242" y="315" clip-path="url(#clipPath2)" width="53.3516" rx="4" ry="4" height="30" stroke="none"/>
    </g>
    <g text-rendering="geometricPrecision" stroke-miterlimit="1.45" shape-rendering="geometricPrecision" font-family="sans-serif" transform="matrix(1,0,0,1,1129,450)" stroke-linecap="butt">
      <text x="310.3242" xml:space="preserve" y="334.7139" clip-path="url(#clipPath2)" stroke="none">Tasting</text>
      <rect x="303.3242" y="315" clip-path="url(#clipPath2)" fill="none" width="53.3516" rx="4" ry="4" height="30"/>
    </g>
    <g fill="white" text-rendering="geometricPrecision" shape-rendering="geometricPrecision" transform="matrix(1,0,0,1,1129,450)" stroke="white">
      <rect x="243.3213" y="375" clip-path="url(#clipPath2)" width="53.3574" rx="4" ry="4" height="30" stroke="none"/>
    </g>
    <g text-rendering="geometricPrecision" stroke-miterlimit="1.45" shape-rendering="geometricPrecision" font-family="sans-serif" transform="matrix(1,0,0,1,1129,450)" stroke-linecap="butt">
      <text x="250.3213" xml:space="preserve" y="394.7139" clip-path="url(#clipPath2)" stroke="none">Feeling</text>
      <rect x="243.3213" y="375" clip-path="url(#clipPath2)" fill="none" width="53.3574" rx="4" ry="4" height="30"/>
    </g>
    <g fill="white" text-rendering="geometricPrecision" shape-rendering="geometricPrecision" transform="matrix(1,0,0,1,1129,450)" stroke="white">
      <rect x="119.3193" y="435" clip-path="url(#clipPath2)" width="61.3613" rx="4" ry="4" height="30" stroke="none"/>
    </g>
    <g text-rendering="geometricPrecision" stroke-miterlimit="1.45" shape-rendering="geometricPrecision" font-family="sans-serif" transform="matrix(1,0,0,1,1129,450)" stroke-linecap="butt">
      <text x="126.3193" xml:space="preserve" y="454.7139" clip-path="url(#clipPath2)" stroke="none">Reacting</text>
      <rect x="119.3193" y="435" clip-path="url(#clipPath2)" fill="none" width="61.3613" rx="4" ry="4" height="30"/>
    </g>
    <g fill="white" text-rendering="geometricPrecision" shape-rendering="geometricPrecision" transform="matrix(1,0,0,1,1129,450)" stroke="white">
      <rect x="695.6621" y="75" clip-path="url(#clipPath2)" width="48.6758" rx="4" ry="4" height="30" stroke="none"/>
    </g>
    <g text-rendering="geometricPrecision" stroke-miterlimit="1.45" shape-rendering="geometricPrecision" font-family="sans-serif" transform="matrix(1,0,0,1,1129,450)" stroke-linecap="butt">
      <text x="702.6621" xml:space="preserve" y="94.7139" clip-path="url(#clipPath2)" stroke="none">Crying</text>
      <rect x="695.6621" y="75" clip-path="url(#clipPath2)" fill="none" width="48.6758" rx="4" ry="4" height="30"/>
    </g>
    <g fill="white" text-rendering="geometricPrecision" shape-rendering="geometricPrecision" transform="matrix(1,0,0,1,1129,450)" stroke="white">
      <rect x="952.6562" y="705" clip-path="url(#clipPath2)" width="42.6875" rx="4" ry="4" height="30" stroke="none"/>
    </g>
    <g text-rendering="geometricPrecision" stroke-miterlimit="1.45" shape-rendering="geometricPrecision" font-family="sans-serif" transform="matrix(1,0,0,1,1129,450)" stroke-linecap="butt">
      <text x="959.6562" xml:space="preserve" y="724.7139" clip-path="url(#clipPath2)" stroke="none">Lying</text>
      <rect x="952.6562" y="705" clip-path="url(#clipPath2)" fill="none" width="42.6875" rx="4" ry="4" height="30"/>
    </g>
    <g fill="white" text-rendering="geometricPrecision" shape-rendering="geometricPrecision" transform="matrix(1,0,0,1,1129,450)" stroke="white">
      <rect x="679.6367" y="795" clip-path="url(#clipPath2)" width="140.7266" rx="4" ry="4" height="30" stroke="none"/>
    </g>
    <g text-rendering="geometricPrecision" stroke-miterlimit="1.45" shape-rendering="geometricPrecision" font-family="sans-serif" transform="matrix(1,0,0,1,1129,450)" stroke-linecap="butt">
      <text x="686.6367" xml:space="preserve" y="814.7139" clip-path="url(#clipPath2)" stroke="none">Understanding sarcasm</text>
      <rect x="679.6367" y="795" clip-path="url(#clipPath2)" fill="none" width="140.7266" rx="4" ry="4" height="30"/>
    </g>
    <g fill="white" text-rendering="geometricPrecision" shape-rendering="geometricPrecision" transform="matrix(1,0,0,1,1129,450)" stroke="white">
      <rect x="352.6357" y="465" clip-path="url(#clipPath2)" width="108.7285" rx="4" ry="4" height="30" stroke="none"/>
    </g>
    <g text-rendering="geometricPrecision" stroke-miterlimit="1.45" shape-rendering="geometricPrecision" font-family="sans-serif" transform="matrix(1,0,0,1,1129,450)" stroke-linecap="butt">
      <text x="359.6357" xml:space="preserve" y="484.7139" clip-path="url(#clipPath2)" stroke="none">Eating using tools</text>
      <rect x="352.6357" y="465" clip-path="url(#clipPath2)" fill="none" width="108.7285" rx="4" ry="4" height="30"/>
    </g>
    <g fill="white" text-rendering="geometricPrecision" shape-rendering="geometricPrecision" transform="matrix(1,0,0,1,1129,450)" stroke="white">
      <rect x="179.6562" y="-105" clip-path="url(#clipPath2)" width="60.6875" rx="4" ry="4" height="30" stroke="none"/>
    </g>
    <g text-rendering="geometricPrecision" stroke-miterlimit="1.45" shape-rendering="geometricPrecision" font-family="sans-serif" transform="matrix(1,0,0,1,1129,450)" stroke-linecap="butt">
      <text x="186.6562" xml:space="preserve" y="-85.2861" clip-path="url(#clipPath2)" stroke="none">Reflexes</text>
      <rect x="179.6562" y="-105" clip-path="url(#clipPath2)" fill="none" width="60.6875" rx="4" ry="4" height="30"/>
    </g>
    <g fill="white" text-rendering="geometricPrecision" shape-rendering="geometricPrecision" transform="matrix(1,0,0,1,1129,450)" stroke="white">
      <rect x="118.6543" y="-45" clip-path="url(#clipPath2)" width="62.6914" rx="4" ry="4" height="30" stroke="none"/>
    </g>
    <g text-rendering="geometricPrecision" stroke-miterlimit="1.45" shape-rendering="geometricPrecision" font-family="sans-serif" transform="matrix(1,0,0,1,1129,450)" stroke-linecap="butt">
      <text x="125.6543" xml:space="preserve" y="-25.2861" clip-path="url(#clipPath2)" stroke="none">Grasping</text>
      <rect x="118.6543" y="-45" clip-path="url(#clipPath2)" fill="none" width="62.6914" rx="4" ry="4" height="30"/>
    </g>
    <g fill="white" text-rendering="geometricPrecision" shape-rendering="geometricPrecision" transform="matrix(1,0,0,1,1129,450)" stroke="white">
      <rect x="211.6543" y="-45" clip-path="url(#clipPath2)" width="56.6914" rx="4" ry="4" height="30" stroke="none"/>
    </g>
    <g text-rendering="geometricPrecision" stroke-miterlimit="1.45" shape-rendering="geometricPrecision" font-family="sans-serif" transform="matrix(1,0,0,1,1129,450)" stroke-linecap="butt">
      <text x="218.6543" xml:space="preserve" y="-25.2861" clip-path="url(#clipPath2)" stroke="none">Sucking</text>
      <rect x="211.6543" y="-45" clip-path="url(#clipPath2)" fill="none" width="56.6914" rx="4" ry="4" height="30"/>
    </g>
    <g fill="white" text-rendering="geometricPrecision" shape-rendering="geometricPrecision" transform="matrix(1,0,0,1,1129,450)" stroke="white">
      <rect x="498.9775" y="-75" clip-path="url(#clipPath2)" width="142.0449" rx="4" ry="4" height="30" stroke="none"/>
    </g>
    <g text-rendering="geometricPrecision" stroke-miterlimit="1.45" shape-rendering="geometricPrecision" font-family="sans-serif" transform="matrix(1,0,0,1,1129,450)" stroke-linecap="butt">
      <text x="505.9775" xml:space="preserve" y="-55.2861" clip-path="url(#clipPath2)" stroke="none">Stimulus-Pleasure cycle</text>
      <rect x="498.9775" y="-75" clip-path="url(#clipPath2)" fill="none" width="142.0449" rx="4" ry="4" height="30"/>
    </g>
    <g fill="white" text-rendering="geometricPrecision" shape-rendering="geometricPrecision" transform="matrix(1,0,0,1,1129,450)" stroke="white">
      <rect x="738.626" y="-45" clip-path="url(#clipPath2)" width="142.748" rx="4" ry="4" height="30" stroke="none"/>
    </g>
    <g text-rendering="geometricPrecision" stroke-miterlimit="1.45" shape-rendering="geometricPrecision" font-family="sans-serif" transform="matrix(1,0,0,1,1129,450)" stroke-linecap="butt">
      <text x="745.626" xml:space="preserve" y="-25.2861" clip-path="url(#clipPath2)" stroke="none">Causality understanding</text>
      <rect x="738.626" y="-45" clip-path="url(#clipPath2)" fill="none" width="142.748" rx="4" ry="4" height="30"/>
    </g>
    <g fill="white" text-rendering="geometricPrecision" shape-rendering="geometricPrecision" transform="matrix(1,0,0,1,1129,450)" stroke="white">
      <rect x="1056.3125" y="-45" clip-path="url(#clipPath2)" width="107.375" rx="4" ry="4" height="30" stroke="none"/>
    </g>
    <g text-rendering="geometricPrecision" stroke-miterlimit="1.45" shape-rendering="geometricPrecision" font-family="sans-serif" transform="matrix(1,0,0,1,1129,450)" stroke-linecap="butt">
      <text x="1063.3125" xml:space="preserve" y="-25.2861" clip-path="url(#clipPath2)" stroke="none">Symbolic thinking</text>
      <rect x="1056.3125" y="-45" clip-path="url(#clipPath2)" fill="none" width="107.375" rx="4" ry="4" height="30"/>
    </g>
    <g fill="white" text-rendering="geometricPrecision" shape-rendering="geometricPrecision" transform="matrix(1,0,0,1,1129,450)" stroke="white">
      <rect x="1284.3125" y="765" clip-path="url(#clipPath2)" width="71.375" rx="4" ry="4" height="30" stroke="none"/>
    </g>
    <g text-rendering="geometricPrecision" stroke-miterlimit="1.45" shape-rendering="geometricPrecision" font-family="sans-serif" transform="matrix(1,0,0,1,1129,450)" stroke-linecap="butt">
      <text x="1291.3125" xml:space="preserve" y="784.7139" clip-path="url(#clipPath2)" stroke="none">Reasoning</text>
      <rect x="1284.3125" y="765" clip-path="url(#clipPath2)" fill="none" width="71.375" rx="4" ry="4" height="30"/>
    </g>
    <g fill="white" text-rendering="geometricPrecision" shape-rendering="geometricPrecision" transform="matrix(1,0,0,1,1129,450)" stroke="white">
      <rect x="1556.3047" y="165" clip-path="url(#clipPath2)" width="67.3906" rx="4" ry="4" height="30" stroke="none"/>
    </g>
    <g text-rendering="geometricPrecision" stroke-miterlimit="1.45" shape-rendering="geometricPrecision" font-family="sans-serif" transform="matrix(1,0,0,1,1129,450)" stroke-linecap="butt">
      <text x="1563.3047" xml:space="preserve" y="184.7139" clip-path="url(#clipPath2)" stroke="none">Language</text>
      <rect x="1556.3047" y="165" clip-path="url(#clipPath2)" fill="none" width="67.3906" rx="4" ry="4" height="30"/>
    </g>
    <g fill="white" text-rendering="geometricPrecision" shape-rendering="geometricPrecision" transform="matrix(1,0,0,1,1129,450)" stroke="white">
      <rect x="1494.6436" y="255" clip-path="url(#clipPath2)" width="70.7129" rx="4" ry="4" height="30" stroke="none"/>
    </g>
    <g text-rendering="geometricPrecision" stroke-miterlimit="1.45" shape-rendering="geometricPrecision" font-family="sans-serif" transform="matrix(1,0,0,1,1129,450)" stroke-linecap="butt">
      <text x="1501.6436" xml:space="preserve" y="274.7139" clip-path="url(#clipPath2)" stroke="none">Phonology</text>
      <rect x="1494.6436" y="255" clip-path="url(#clipPath2)" fill="none" width="70.7129" rx="4" ry="4" height="30"/>
    </g>
    <g fill="white" text-rendering="geometricPrecision" shape-rendering="geometricPrecision" transform="matrix(1,0,0,1,1129,450)" stroke="white">
      <rect x="1581.6494" y="255" clip-path="url(#clipPath2)" width="76.7012" rx="4" ry="4" height="30" stroke="none"/>
    </g>
    <g text-rendering="geometricPrecision" stroke-miterlimit="1.45" shape-rendering="geometricPrecision" font-family="sans-serif" transform="matrix(1,0,0,1,1129,450)" stroke-linecap="butt">
      <text x="1588.6494" xml:space="preserve" y="274.7139" clip-path="url(#clipPath2)" stroke="none">Morphology</text>
      <rect x="1581.6494" y="255" clip-path="url(#clipPath2)" fill="none" width="76.7012" rx="4" ry="4" height="30"/>
    </g>
    <g fill="white" text-rendering="geometricPrecision" shape-rendering="geometricPrecision" transform="matrix(1,0,0,1,1129,450)" stroke="white">
      <rect x="1684.6572" y="255" clip-path="url(#clipPath2)" width="50.6855" rx="4" ry="4" height="30" stroke="none"/>
    </g>
    <g text-rendering="geometricPrecision" stroke-miterlimit="1.45" shape-rendering="geometricPrecision" font-family="sans-serif" transform="matrix(1,0,0,1,1129,450)" stroke-linecap="butt">
      <text x="1691.6572" xml:space="preserve" y="274.7139" clip-path="url(#clipPath2)" stroke="none">Syntax</text>
      <rect x="1684.6572" y="255" clip-path="url(#clipPath2)" fill="none" width="50.6855" rx="4" ry="4" height="30"/>
    </g>
    <g fill="white" text-rendering="geometricPrecision" shape-rendering="geometricPrecision" transform="matrix(1,0,0,1,1129,450)" stroke="white">
      <rect x="1764.9893" y="255" clip-path="url(#clipPath2)" width="70.0215" rx="4" ry="4" height="30" stroke="none"/>
    </g>
    <g text-rendering="geometricPrecision" stroke-miterlimit="1.45" shape-rendering="geometricPrecision" font-family="sans-serif" transform="matrix(1,0,0,1,1129,450)" stroke-linecap="butt">
      <text x="1771.9893" xml:space="preserve" y="274.7139" clip-path="url(#clipPath2)" stroke="none">Semantics</text>
      <rect x="1764.9893" y="255" clip-path="url(#clipPath2)" fill="none" width="70.0215" rx="4" ry="4" height="30"/>
    </g>
    <g fill="white" text-rendering="geometricPrecision" shape-rendering="geometricPrecision" transform="matrix(1,0,0,1,1129,450)" stroke="white">
      <rect x="1856.3252" y="255" clip-path="url(#clipPath2)" width="67.3496" rx="4" ry="4" height="30" stroke="none"/>
    </g>
    <g text-rendering="geometricPrecision" stroke-miterlimit="1.45" shape-rendering="geometricPrecision" font-family="sans-serif" transform="matrix(1,0,0,1,1129,450)" stroke-linecap="butt">
      <text x="1863.3252" xml:space="preserve" y="274.7139" clip-path="url(#clipPath2)" stroke="none">Discourse</text>
      <rect x="1856.3252" y="255" clip-path="url(#clipPath2)" fill="none" width="67.3496" rx="4" ry="4" height="30"/>
    </g>
    <g fill="white" text-rendering="geometricPrecision" shape-rendering="geometricPrecision" transform="matrix(1,0,0,1,1129,450)" stroke="white">
      <rect x="-120.3438" y="-225" clip-path="url(#clipPath2)" width="60.6875" rx="4" ry="4" height="30" stroke="none"/>
    </g>
    <g text-rendering="geometricPrecision" stroke-miterlimit="1.45" shape-rendering="geometricPrecision" font-family="sans-serif" transform="matrix(1,0,0,1,1129,450)" stroke-linecap="butt">
      <text x="-113.3438" xml:space="preserve" y="-205.2861" clip-path="url(#clipPath2)" stroke="none">Reflexes</text>
      <rect x="-120.3438" y="-225" clip-path="url(#clipPath2)" fill="none" width="60.6875" rx="4" ry="4" height="30"/>
    </g>
    <g fill="white" text-rendering="geometricPrecision" shape-rendering="geometricPrecision" transform="matrix(1,0,0,1,1129,450)" stroke="white">
      <rect x="-164.6816" y="-165" clip-path="url(#clipPath2)" width="149.3633" rx="4" ry="4" height="30" stroke="none"/>
    </g>
    <g text-rendering="geometricPrecision" stroke-miterlimit="1.45" shape-rendering="geometricPrecision" font-family="sans-serif" transform="matrix(1,0,0,1,1129,450)" stroke-linecap="butt">
      <text x="-157.6816" xml:space="preserve" y="-145.2861" clip-path="url(#clipPath2)" stroke="none">Primary circular reactions</text>
      <rect x="-164.6816" y="-165" clip-path="url(#clipPath2)" fill="none" width="149.3633" rx="4" ry="4" height="30"/>
    </g>
    <g fill="white" text-rendering="geometricPrecision" shape-rendering="geometricPrecision" transform="matrix(1,0,0,1,1129,450)" stroke="white">
      <rect x="-172.7002" y="-105" clip-path="url(#clipPath2)" width="165.4004" rx="4" ry="4" height="30" stroke="none"/>
    </g>
    <g text-rendering="geometricPrecision" stroke-miterlimit="1.45" shape-rendering="geometricPrecision" font-family="sans-serif" transform="matrix(1,0,0,1,1129,450)" stroke-linecap="butt">
      <text x="-165.7002" xml:space="preserve" y="-85.2861" clip-path="url(#clipPath2)" stroke="none">Secondary circular reactions</text>
      <rect x="-172.7002" y="-105" clip-path="url(#clipPath2)" fill="none" width="165.4004" rx="4" ry="4" height="30"/>
    </g>
    <g fill="white" text-rendering="geometricPrecision" shape-rendering="geometricPrecision" transform="matrix(1,0,0,1,1129,450)" stroke="white">
      <rect x="-214.0586" y="-45" clip-path="url(#clipPath2)" width="248.1172" rx="4" ry="4" height="30" stroke="none"/>
    </g>
    <g text-rendering="geometricPrecision" stroke-miterlimit="1.45" shape-rendering="geometricPrecision" font-family="sans-serif" transform="matrix(1,0,0,1,1129,450)" stroke-linecap="butt">
      <text x="-207.0586" xml:space="preserve" y="-25.2861" clip-path="url(#clipPath2)" stroke="none">Coordination of secondary circular reactions</text>
      <rect x="-214.0586" y="-45" clip-path="url(#clipPath2)" fill="none" width="248.1172" rx="4" ry="4" height="30"/>
    </g>
    <g fill="white" text-rendering="geometricPrecision" shape-rendering="geometricPrecision" transform="matrix(1,0,0,1,1129,450)" stroke="white">
      <rect x="-164.3506" y="15" clip-path="url(#clipPath2)" width="148.7012" rx="4" ry="4" height="30" stroke="none"/>
    </g>
    <g text-rendering="geometricPrecision" stroke-miterlimit="1.45" shape-rendering="geometricPrecision" font-family="sans-serif" transform="matrix(1,0,0,1,1129,450)" stroke-linecap="butt">
      <text x="-157.3506" xml:space="preserve" y="34.7139" clip-path="url(#clipPath2)" stroke="none">Tertiary circular reactions</text>
      <rect x="-164.3506" y="15" clip-path="url(#clipPath2)" fill="none" width="148.7012" rx="4" ry="4" height="30"/>
    </g>
    <g fill="white" text-rendering="geometricPrecision" shape-rendering="geometricPrecision" transform="matrix(1,0,0,1,1129,450)" stroke="white">
      <rect x="-155.0342" y="75" clip-path="url(#clipPath2)" width="130.0684" rx="4" ry="4" height="30" stroke="none"/>
    </g>
    <g text-rendering="geometricPrecision" stroke-miterlimit="1.45" shape-rendering="geometricPrecision" font-family="sans-serif" transform="matrix(1,0,0,1,1129,450)" stroke-linecap="butt">
      <text x="-148.0342" xml:space="preserve" y="94.7139" clip-path="url(#clipPath2)" stroke="none">Mental representation</text>
      <rect x="-155.0342" y="75" clip-path="url(#clipPath2)" fill="none" width="130.0684" rx="4" ry="4" height="30"/>
    </g>
    <g fill="white" text-rendering="geometricPrecision" shape-rendering="geometricPrecision" transform="matrix(1,0,0,1,1129,450)" stroke="white">
      <rect x="719.3164" y="-435" clip-path="url(#clipPath2)" width="61.3672" rx="4" ry="4" height="30" stroke="none"/>
    </g>
    <g text-rendering="geometricPrecision" stroke-miterlimit="1.45" shape-rendering="geometricPrecision" font-family="sans-serif" transform="matrix(1,0,0,1,1129,450)" stroke-linecap="butt">
      <text x="726.3164" xml:space="preserve" y="-415.2861" clip-path="url(#clipPath2)" stroke="none">Attention</text>
      <rect x="719.3164" y="-435" clip-path="url(#clipPath2)" fill="none" width="61.3672" rx="4" ry="4" height="30"/>
    </g>
    <g fill="white" text-rendering="geometricPrecision" shape-rendering="geometricPrecision" transform="matrix(1,0,0,1,1129,450)" stroke="white">
      <rect x="811.332" y="-435" clip-path="url(#clipPath2)" width="57.3359" rx="4" ry="4" height="30" stroke="none"/>
    </g>
    <g text-rendering="geometricPrecision" stroke-miterlimit="1.45" shape-rendering="geometricPrecision" font-family="sans-serif" transform="matrix(1,0,0,1,1129,450)" stroke-linecap="butt">
      <text x="818.332" xml:space="preserve" y="-415.2861" clip-path="url(#clipPath2)" stroke="none">Memory</text>
      <rect x="811.332" y="-435" clip-path="url(#clipPath2)" fill="none" width="57.3359" rx="4" ry="4" height="30"/>
    </g>
    <g fill="white" text-rendering="geometricPrecision" shape-rendering="geometricPrecision" transform="matrix(1,0,0,1,1129,450)" stroke="white">
      <rect x="960.6377" y="-435" clip-path="url(#clipPath2)" width="118.7246" rx="4" ry="4" height="30" stroke="none"/>
    </g>
    <g text-rendering="geometricPrecision" stroke-miterlimit="1.45" shape-rendering="geometricPrecision" font-family="sans-serif" transform="matrix(1,0,0,1,1129,450)" stroke-linecap="butt">
      <text x="967.6377" xml:space="preserve" y="-415.2861" clip-path="url(#clipPath2)" stroke="none">Object permanence</text>
      <rect x="960.6377" y="-435" clip-path="url(#clipPath2)" fill="none" width="118.7246" rx="4" ry="4" height="30"/>
    </g>
    <g fill="white" text-rendering="geometricPrecision" shape-rendering="geometricPrecision" transform="matrix(1,0,0,1,1129,450)" stroke="white">
      <rect x="1147.3027" y="-435" clip-path="url(#clipPath2)" width="105.3945" rx="4" ry="4" height="30" stroke="none"/>
    </g>
    <g text-rendering="geometricPrecision" stroke-miterlimit="1.45" shape-rendering="geometricPrecision" font-family="sans-serif" transform="matrix(1,0,0,1,1129,450)" stroke-linecap="butt">
      <text x="1154.3027" xml:space="preserve" y="-415.2861" clip-path="url(#clipPath2)" stroke="none">Depth perception</text>
      <rect x="1147.3027" y="-435" clip-path="url(#clipPath2)" fill="none" width="105.3945" rx="4" ry="4" height="30"/>
    </g>
    <g fill="white" text-rendering="geometricPrecision" shape-rendering="geometricPrecision" transform="matrix(1,0,0,1,1129,450)" stroke="white">
      <rect x="1276.9883" y="-435" clip-path="url(#clipPath2)" width="86.0234" rx="4" ry="4" height="30" stroke="none"/>
    </g>
    <g text-rendering="geometricPrecision" stroke-miterlimit="1.45" shape-rendering="geometricPrecision" font-family="sans-serif" transform="matrix(1,0,0,1,1129,450)" stroke-linecap="butt">
      <text x="1283.9883" xml:space="preserve" y="-415.2861" clip-path="url(#clipPath2)" stroke="none">Physical laws</text>
      <rect x="1276.9883" y="-435" clip-path="url(#clipPath2)" fill="none" width="86.0234" rx="4" ry="4" height="30"/>
    </g>
    <g fill="white" text-rendering="geometricPrecision" shape-rendering="geometricPrecision" transform="matrix(1,0,0,1,1129,450)" stroke="white">
      <rect x="1631.6475" y="-423" clip-path="url(#clipPath2)" width="96.7051" rx="4" ry="4" height="30" stroke="none"/>
    </g>
    <g text-rendering="geometricPrecision" stroke-miterlimit="1.45" shape-rendering="geometricPrecision" font-family="sans-serif" transform="matrix(1,0,0,1,1129,450)" stroke-linecap="butt">
      <text x="1638.6475" xml:space="preserve" y="-403.2861" clip-path="url(#clipPath2)" stroke="none">Self-awareness</text>
      <rect x="1631.6475" y="-423" clip-path="url(#clipPath2)" fill="none" width="96.7051" rx="4" ry="4" height="30"/>
    </g>
    <g fill="white" text-rendering="geometricPrecision" shape-rendering="geometricPrecision" transform="matrix(1,0,0,1,1129,450)" stroke="white">
      <rect x="1635.9805" y="-363" clip-path="url(#clipPath2)" width="88.0391" rx="4" ry="4" height="30" stroke="none"/>
    </g>
    <g text-rendering="geometricPrecision" stroke-miterlimit="1.45" shape-rendering="geometricPrecision" font-family="sans-serif" transform="matrix(1,0,0,1,1129,450)" stroke-linecap="butt">
      <text x="1642.9805" xml:space="preserve" y="-343.2861" clip-path="url(#clipPath2)" stroke="none">Differentiation</text>
      <rect x="1635.9805" y="-363" clip-path="url(#clipPath2)" fill="none" width="88.0391" rx="4" ry="4" height="30"/>
    </g>
    <g fill="white" text-rendering="geometricPrecision" shape-rendering="geometricPrecision" transform="matrix(1,0,0,1,1129,450)" stroke="white">
      <rect x="1649.6504" y="-315" clip-path="url(#clipPath2)" width="60.6992" rx="4" ry="4" height="30" stroke="none"/>
    </g>
    <g text-rendering="geometricPrecision" stroke-miterlimit="1.45" shape-rendering="geometricPrecision" font-family="sans-serif" transform="matrix(1,0,0,1,1129,450)" stroke-linecap="butt">
      <text x="1656.6504" xml:space="preserve" y="-295.2861" clip-path="url(#clipPath2)" stroke="none">Situation</text>
      <rect x="1649.6504" y="-315" clip-path="url(#clipPath2)" fill="none" width="60.6992" rx="4" ry="4" height="30"/>
    </g>
    <g fill="white" text-rendering="geometricPrecision" shape-rendering="geometricPrecision" transform="matrix(1,0,0,1,1129,450)" stroke="white">
      <rect x="1639.3115" y="-255" clip-path="url(#clipPath2)" width="81.377" rx="4" ry="4" height="30" stroke="none"/>
    </g>
    <g text-rendering="geometricPrecision" stroke-miterlimit="1.45" shape-rendering="geometricPrecision" font-family="sans-serif" transform="matrix(1,0,0,1,1129,450)" stroke-linecap="butt">
      <text x="1646.3115" xml:space="preserve" y="-235.2861" clip-path="url(#clipPath2)" stroke="none">Identification</text>
      <rect x="1639.3115" y="-255" clip-path="url(#clipPath2)" fill="none" width="81.377" rx="4" ry="4" height="30"/>
    </g>
    <g fill="white" text-rendering="geometricPrecision" shape-rendering="geometricPrecision" transform="matrix(1,0,0,1,1129,450)" stroke="white">
      <rect x="1638.9805" y="-195" clip-path="url(#clipPath2)" width="82.0391" rx="4" ry="4" height="30" stroke="none"/>
    </g>
    <g text-rendering="geometricPrecision" stroke-miterlimit="1.45" shape-rendering="geometricPrecision" font-family="sans-serif" transform="matrix(1,0,0,1,1129,450)" stroke-linecap="butt">
      <text x="1645.9805" xml:space="preserve" y="-175.2861" clip-path="url(#clipPath2)" stroke="none">Permanence</text>
      <rect x="1638.9805" y="-195" clip-path="url(#clipPath2)" fill="none" width="82.0391" rx="4" ry="4" height="30"/>
    </g>
    <g fill="white" text-rendering="geometricPrecision" shape-rendering="geometricPrecision" transform="matrix(1,0,0,1,1129,450)" stroke="white">
      <rect x="1621.3086" y="-135" clip-path="url(#clipPath2)" width="117.3828" rx="4" ry="4" height="30" stroke="none"/>
    </g>
    <g text-rendering="geometricPrecision" stroke-miterlimit="1.45" shape-rendering="geometricPrecision" font-family="sans-serif" transform="matrix(1,0,0,1,1129,450)" stroke-linecap="butt">
      <text x="1628.3086" xml:space="preserve" y="-115.2861" clip-path="url(#clipPath2)" stroke="none">Self-consciousness</text>
      <rect x="1621.3086" y="-135" clip-path="url(#clipPath2)" fill="none" width="117.3828" rx="4" ry="4" height="30"/>
    </g>
    <g fill="white" text-rendering="geometricPrecision" shape-rendering="geometricPrecision" transform="matrix(1,0,0,1,1129,450)" stroke="white">
      <rect x="-674.3764" y="165" clip-path="url(#clipPath2)" width="94.0508" rx="4" ry="4" height="30" stroke="none"/>
    </g>
    <g text-rendering="geometricPrecision" stroke-miterlimit="1.45" shape-rendering="geometricPrecision" font-family="sans-serif" transform="matrix(1,0,0,1,1129,450)" stroke-linecap="butt">
      <text x="-667.3764" xml:space="preserve" y="184.7139" clip-path="url(#clipPath2)" stroke="none">Sense directed</text>
      <rect x="-674.3764" y="165" clip-path="url(#clipPath2)" fill="none" width="94.0508" rx="4" ry="4" height="30"/>
    </g>
    <g fill="white" text-rendering="geometricPrecision" shape-rendering="geometricPrecision" transform="matrix(1,0,0,1,1129,450)" stroke="white">
      <rect x="-804.7006" y="315" clip-path="url(#clipPath2)" width="54.6992" rx="4" ry="4" height="30" stroke="none"/>
    </g>
    <g text-rendering="geometricPrecision" stroke-miterlimit="1.45" shape-rendering="geometricPrecision" font-family="sans-serif" transform="matrix(1,0,0,1,1129,450)" stroke-linecap="butt">
      <text x="-797.7006" xml:space="preserve" y="334.7139" clip-path="url(#clipPath2)" stroke="none">Speech</text>
      <rect x="-804.7006" y="315" clip-path="url(#clipPath2)" fill="none" width="54.6992" rx="4" ry="4" height="30"/>
    </g>
    <g fill="white" text-rendering="geometricPrecision" shape-rendering="geometricPrecision" transform="matrix(1,0,0,1,1129,450)" stroke="white">
      <rect x="-522.3627" y="315" clip-path="url(#clipPath2)" width="56.0234" rx="4" ry="4" height="30" stroke="none"/>
    </g>
    <g text-rendering="geometricPrecision" stroke-miterlimit="1.45" shape-rendering="geometricPrecision" font-family="sans-serif" transform="matrix(1,0,0,1,1129,450)" stroke-linecap="butt">
      <text x="-515.3627" xml:space="preserve" y="334.7139" clip-path="url(#clipPath2)" stroke="none">Hearing</text>
      <rect x="-522.3627" y="315" clip-path="url(#clipPath2)" fill="none" width="56.0234" rx="4" ry="4" height="30"/>
    </g>
    <g fill="white" text-rendering="geometricPrecision" shape-rendering="geometricPrecision" transform="matrix(1,0,0,1,1129,450)" stroke="white">
      <rect x="-270.2643" y="315" clip-path="url(#clipPath2)" width="46.6836" rx="4" ry="4" height="30" stroke="none"/>
    </g>
    <g text-rendering="geometricPrecision" stroke-miterlimit="1.45" shape-rendering="geometricPrecision" font-family="sans-serif" transform="matrix(1,0,0,1,1129,450)" stroke-linecap="butt">
      <text x="-263.2643" xml:space="preserve" y="334.7139" clip-path="url(#clipPath2)" stroke="none">Vision</text>
      <rect x="-270.2643" y="315" clip-path="url(#clipPath2)" fill="none" width="46.6836" rx="4" ry="4" height="30"/>
    </g>
    <g fill="white" text-rendering="geometricPrecision" shape-rendering="geometricPrecision" transform="matrix(1,0,0,1,1129,450)" stroke="white">
      <rect x="-561.0522" y="375" clip-path="url(#clipPath2)" width="133.4023" rx="4" ry="4" height="30" stroke="none"/>
    </g>
    <g text-rendering="geometricPrecision" stroke-miterlimit="1.45" shape-rendering="geometricPrecision" font-family="sans-serif" transform="matrix(1,0,0,1,1129,450)" stroke-linecap="butt">
      <text x="-554.0522" xml:space="preserve" y="394.7139" clip-path="url(#clipPath2)" stroke="none">Sound source tracking</text>
      <rect x="-561.0522" y="375" clip-path="url(#clipPath2)" fill="none" width="133.4023" rx="4" ry="4" height="30"/>
    </g>
    <g fill="white" text-rendering="geometricPrecision" shape-rendering="geometricPrecision" transform="matrix(1,0,0,1,1129,450)" stroke="white">
      <rect x="-855.7241" y="375" clip-path="url(#clipPath2)" width="156.7461" rx="4" ry="4" height="30" stroke="none"/>
    </g>
    <g text-rendering="geometricPrecision" stroke-miterlimit="1.45" shape-rendering="geometricPrecision" font-family="sans-serif" transform="matrix(1,0,0,1,1129,450)" stroke-linecap="butt">
      <text x="-848.7241" xml:space="preserve" y="394.7139" clip-path="url(#clipPath2)" stroke="none">Different sounds per signal</text>
      <rect x="-855.7241" y="375" clip-path="url(#clipPath2)" fill="none" width="156.7461" rx="4" ry="4" height="30"/>
    </g>
    <g fill="white" text-rendering="geometricPrecision" shape-rendering="geometricPrecision" transform="matrix(1,0,0,1,1129,450)" stroke="white">
      <rect x="-802.3569" y="435" clip-path="url(#clipPath2)" width="50.0117" rx="4" ry="4" height="30" stroke="none"/>
    </g>
    <g text-rendering="geometricPrecision" stroke-miterlimit="1.45" shape-rendering="geometricPrecision" font-family="sans-serif" transform="matrix(1,0,0,1,1129,450)" stroke-linecap="butt">
      <text x="-795.3569" xml:space="preserve" y="454.7139" clip-path="url(#clipPath2)" stroke="none">Imitate</text>
      <rect x="-802.3569" y="435" clip-path="url(#clipPath2)" fill="none" width="50.0117" rx="4" ry="4" height="30"/>
    </g>
    <g fill="white" text-rendering="geometricPrecision" shape-rendering="geometricPrecision" transform="matrix(1,0,0,1,1129,450)" stroke="white">
      <rect x="-554.0444" y="435" clip-path="url(#clipPath2)" width="119.3867" rx="4" ry="4" height="30" stroke="none"/>
    </g>
    <g text-rendering="geometricPrecision" stroke-miterlimit="1.45" shape-rendering="geometricPrecision" font-family="sans-serif" transform="matrix(1,0,0,1,1129,450)" stroke-linecap="butt">
      <text x="-547.0444" xml:space="preserve" y="454.7139" clip-path="url(#clipPath2)" stroke="none">Recognize its name</text>
      <rect x="-554.0444" y="435" clip-path="url(#clipPath2)" fill="none" width="119.3867" rx="4" ry="4" height="30"/>
    </g>
    <g fill="white" text-rendering="geometricPrecision" shape-rendering="geometricPrecision" transform="matrix(1,0,0,1,1129,450)" stroke="white">
      <rect x="-603.7407" y="495" clip-path="url(#clipPath2)" width="218.7793" rx="4" ry="4" height="30" stroke="none"/>
    </g>
    <g text-rendering="geometricPrecision" stroke-miterlimit="1.45" shape-rendering="geometricPrecision" font-family="sans-serif" transform="matrix(1,0,0,1,1129,450)" stroke-linecap="butt">
      <text x="-596.7407" xml:space="preserve" y="514.7139" clip-path="url(#clipPath2)" stroke="none">Recognize negative reward signal (no)</text>
      <rect x="-603.7407" y="495" clip-path="url(#clipPath2)" fill="none" width="218.7793" rx="4" ry="4" height="30"/>
    </g>
    <g fill="white" text-rendering="geometricPrecision" shape-rendering="geometricPrecision" transform="matrix(1,0,0,1,1129,450)" stroke="white">
      <rect x="-1026.6879" y="315" clip-path="url(#clipPath2)" width="44.6738" rx="4" ry="4" height="30" stroke="none"/>
    </g>
    <g text-rendering="geometricPrecision" stroke-miterlimit="1.45" shape-rendering="geometricPrecision" font-family="sans-serif" transform="matrix(1,0,0,1,1129,450)" stroke-linecap="butt">
      <text x="-1019.6879" xml:space="preserve" y="334.7139" clip-path="url(#clipPath2)" stroke="none">Motor</text>
      <rect x="-1026.6879" y="315" clip-path="url(#clipPath2)" fill="none" width="44.6738" rx="4" ry="4" height="30"/>
    </g>
    <g fill="white" text-rendering="geometricPrecision" shape-rendering="geometricPrecision" transform="matrix(1,0,0,1,1129,450)" stroke="white">
      <rect x="-892.3627" y="225" clip-path="url(#clipPath2)" width="50.0234" rx="4" ry="4" height="30" stroke="none"/>
    </g>
    <g text-rendering="geometricPrecision" stroke-miterlimit="1.45" shape-rendering="geometricPrecision" font-family="sans-serif" transform="matrix(1,0,0,1,1129,450)" stroke-linecap="butt">
      <text x="-885.3627" xml:space="preserve" y="244.7139" clip-path="url(#clipPath2)" stroke="none">Output</text>
      <rect x="-892.3627" y="225" clip-path="url(#clipPath2)" fill="none" width="50.0234" rx="4" ry="4" height="30"/>
    </g>
    <g fill="white" text-rendering="geometricPrecision" shape-rendering="geometricPrecision" transform="matrix(1,0,0,1,1129,450)" stroke="white">
      <rect x="-394.6957" y="225" clip-path="url(#clipPath2)" width="40.6895" rx="4" ry="4" height="30" stroke="none"/>
    </g>
    <g text-rendering="geometricPrecision" stroke-miterlimit="1.45" shape-rendering="geometricPrecision" font-family="sans-serif" transform="matrix(1,0,0,1,1129,450)" stroke-linecap="butt">
      <text x="-387.6957" xml:space="preserve" y="244.7139" clip-path="url(#clipPath2)" stroke="none">Input</text>
      <rect x="-394.6957" y="225" clip-path="url(#clipPath2)" fill="none" width="40.6895" rx="4" ry="4" height="30"/>
    </g>
    <g fill="white" text-rendering="geometricPrecision" shape-rendering="geometricPrecision" transform="matrix(1,0,0,1,1129,450)" stroke="white">
      <rect x="-1113.4155" y="375" clip-path="url(#clipPath2)" width="218.1289" rx="4" ry="4" height="30" stroke="none"/>
    </g>
    <g text-rendering="geometricPrecision" stroke-miterlimit="1.45" shape-rendering="geometricPrecision" font-family="sans-serif" transform="matrix(1,0,0,1,1129,450)" stroke-linecap="butt">
      <text x="-1106.4154" xml:space="preserve" y="394.7139" clip-path="url(#clipPath2)" stroke="none">Repeat gesture for expected response</text>
      <rect x="-1113.4155" y="375" clip-path="url(#clipPath2)" fill="none" width="218.1289" rx="4" ry="4" height="30"/>
    </g>
    <g fill="white" text-rendering="geometricPrecision" shape-rendering="geometricPrecision" transform="matrix(1,0,0,1,1129,450)" stroke="white">
      <rect x="-877.0405" y="825" clip-path="url(#clipPath2)" width="191.4102" rx="4" ry="4" height="30" stroke="none"/>
    </g>
    <g text-rendering="geometricPrecision" stroke-miterlimit="1.45" shape-rendering="geometricPrecision" font-family="sans-serif" transform="matrix(1,0,0,1,1129,450)" stroke-linecap="butt">
      <text x="-870.0405" xml:space="preserve" y="844.7139" clip-path="url(#clipPath2)" stroke="none">Follow simple one-step directions</text>
      <rect x="-877.0405" y="825" clip-path="url(#clipPath2)" fill="none" width="191.4102" rx="4" ry="4" height="30"/>
    </g>
    <g fill="white" text-rendering="geometricPrecision" shape-rendering="geometricPrecision" transform="matrix(1,0,0,1,1129,450)" stroke="white">
      <rect x="-1092.7123" y="435" clip-path="url(#clipPath2)" width="150.7227" rx="4" ry="4" height="30" stroke="none"/>
    </g>
    <g text-rendering="geometricPrecision" stroke-miterlimit="1.45" shape-rendering="geometricPrecision" font-family="sans-serif" transform="matrix(1,0,0,1,1129,450)" stroke-linecap="butt">
      <text x="-1085.7123" xml:space="preserve" y="454.7139" clip-path="url(#clipPath2)" stroke="none">Gestures to communicate</text>
      <rect x="-1092.7123" y="435" clip-path="url(#clipPath2)" fill="none" width="150.7227" rx="4" ry="4" height="30"/>
    </g>
    <g fill="white" text-rendering="geometricPrecision" shape-rendering="geometricPrecision" transform="matrix(1,0,0,1,1129,450)" stroke="white">
      <rect x="-887.7368" y="495" clip-path="url(#clipPath2)" width="220.7715" rx="4" ry="4" height="30" stroke="none"/>
    </g>
    <g text-rendering="geometricPrecision" stroke-miterlimit="1.45" shape-rendering="geometricPrecision" font-family="sans-serif" transform="matrix(1,0,0,1,1129,450)" stroke-linecap="butt">
      <text x="-880.7368" xml:space="preserve" y="514.7139" clip-path="url(#clipPath2)" stroke="none">Simple/Low level language (3-4 words)</text>
      <rect x="-887.7368" y="495" clip-path="url(#clipPath2)" fill="none" width="220.7715" rx="4" ry="4" height="30"/>
    </g>
    <g fill="white" text-rendering="geometricPrecision" shape-rendering="geometricPrecision" transform="matrix(1,0,0,1,1129,450)" stroke="white">
      <rect x="-852.393" y="555" clip-path="url(#clipPath2)" width="150.084" rx="4" ry="4" height="30" stroke="none"/>
    </g>
    <g text-rendering="geometricPrecision" stroke-miterlimit="1.45" shape-rendering="geometricPrecision" font-family="sans-serif" transform="matrix(1,0,0,1,1129,450)" stroke-linecap="butt">
      <text x="-845.393" xml:space="preserve" y="574.7139" clip-path="url(#clipPath2)" stroke="none">Makes consonant sounds</text>
      <rect x="-852.393" y="555" clip-path="url(#clipPath2)" fill="none" width="150.084" rx="4" ry="4" height="30"/>
    </g>
    <g fill="white" text-rendering="geometricPrecision" shape-rendering="geometricPrecision" transform="matrix(1,0,0,1,1129,450)" stroke="white">
      <rect x="-860.3618" y="885" clip-path="url(#clipPath2)" width="158.0527" rx="4" ry="4" height="30" stroke="none"/>
    </g>
    <g text-rendering="geometricPrecision" stroke-miterlimit="1.45" shape-rendering="geometricPrecision" font-family="sans-serif" transform="matrix(1,0,0,1,1129,450)" stroke-linecap="butt">
      <text x="-853.3618" xml:space="preserve" y="904.7139" clip-path="url(#clipPath2)" stroke="none">Follow two-steps directions</text>
      <rect x="-860.3618" y="885" clip-path="url(#clipPath2)" fill="none" width="158.0527" rx="4" ry="4" height="30"/>
    </g>
    <g fill="white" text-rendering="geometricPrecision" shape-rendering="geometricPrecision" transform="matrix(1,0,0,1,1129,450)" stroke="white">
      <rect x="-306.4116" y="378.5057" clip-path="url(#clipPath2)" width="110.7207" rx="4" ry="4" height="30" stroke="none"/>
    </g>
    <g text-rendering="geometricPrecision" stroke-miterlimit="1.45" shape-rendering="geometricPrecision" font-family="sans-serif" transform="matrix(1,0,0,1,1129,450)" stroke-linecap="butt">
      <text x="-299.4116" xml:space="preserve" y="398.2195" clip-path="url(#clipPath2)" stroke="none">Object recognition</text>
      <rect x="-306.4116" y="378.5057" clip-path="url(#clipPath2)" fill="none" width="110.7207" rx="4" ry="4" height="30"/>
    </g>
    <g fill="white" text-rendering="geometricPrecision" shape-rendering="geometricPrecision" transform="matrix(1,0,0,1,1129,450)" stroke="white">
      <rect x="-289.7241" y="435" clip-path="url(#clipPath2)" width="94.0332" rx="4" ry="4" height="30" stroke="none"/>
    </g>
    <g text-rendering="geometricPrecision" stroke-miterlimit="1.45" shape-rendering="geometricPrecision" font-family="sans-serif" transform="matrix(1,0,0,1,1129,450)" stroke-linecap="butt">
      <text x="-282.7241" xml:space="preserve" y="454.7139" clip-path="url(#clipPath2)" stroke="none">Object tracking</text>
      <rect x="-289.7241" y="435" clip-path="url(#clipPath2)" fill="none" width="94.0332" rx="4" ry="4" height="30"/>
    </g>
    <g fill="white" text-rendering="geometricPrecision" shape-rendering="geometricPrecision" transform="matrix(1,0,0,1,1129,450)" stroke="white">
      <rect x="-509.0499" y="607.8734" clip-path="url(#clipPath2)" width="259.4609" rx="4" ry="4" height="30" stroke="none"/>
    </g>
    <g text-rendering="geometricPrecision" stroke-miterlimit="1.45" shape-rendering="geometricPrecision" font-family="sans-serif" transform="matrix(1,0,0,1,1129,450)" stroke-linecap="butt">
      <text x="-502.0499" xml:space="preserve" y="627.5873" clip-path="url(#clipPath2)" stroke="none">Associates observed things with what is heard</text>
      <rect x="-509.0499" y="607.8734" clip-path="url(#clipPath2)" fill="none" width="259.4609" rx="4" ry="4" height="30"/>
    </g>
  </g>
</svg>
